<svg xmlns="http://www.w3.org/2000/svg" viewBox="0 0 192 192" width="192" height="192">
  <defs>
    <linearGradient id="bg" x1="0%" y1="0%" x2="100%" y2="100%">
      <stop offset="0%" style="stop-color:#0d1b2a;stop-opacity:1" />
      <stop offset="100%" style="stop-color:#1b2d4a;stop-opacity:1" />
    </linearGradient>
    <linearGradient id="shield" x1="0%" y1="0%" x2="100%" y2="100%">
      <stop offset="0%" style="stop-color:#00d4aa;stop-opacity:1" />
      <stop offset="100%" style="stop-color:#00b4d8;stop-opacity:1" />
    </linearGradient>
  </defs>
  <rect width="192" height="192" rx="40" fill="url(#bg)"/>
  <!-- Shield shape -->
  <path d="M96 28 L148 52 L148 100 C148 132 126 156 96 168 C66 156 44 132 44 100 L44 52 Z" 
        fill="url(#shield)" opacity="0.9"/>
  <!-- Rain drops -->
  <line x1="78" y1="72" x2="74" y2="88" stroke="white" stroke-width="3" stroke-linecap="round" opacity="0.9"/>
  <line x1="96" y1="66" x2="92" y2="86" stroke="white" stroke-width="3.5" stroke-linecap="round" opacity="0.95"/>
  <line x1="114" y1="72" x2="110" y2="88" stroke="white" stroke-width="3" stroke-linecap="round" opacity="0.9"/>
  <!-- Cloud -->
  <ellipse cx="96" cy="108" rx="28" ry="14" fill="white" opacity="0.95"/>
  <ellipse cx="82" cy="102" rx="16" ry="12" fill="white" opacity="0.95"/>
  <ellipse cx="110" cy="102" rx="16" ry="12" fill="white" opacity="0.95"/>
  <ellipse cx="96" cy="96" rx="18" ry="14" fill="white" opacity="0.95"/>
  <!-- Checkmark -->
  <path d="M84 128 L94 138 L112 118" stroke="#0d1b2a" stroke-width="5" stroke-linecap="round" stroke-linejoin="round" fill="none"/>
</svg>
